<?xml version="1.0" encoding="utf-8"?>
<!-- Generator: Adobe Illustrator 19.0.0, SVG Export Plug-In . SVG Version: 6.00 Build 0)  -->
<svg version="1.1" id="Layer_1" xmlns="http://www.w3.org/2000/svg" xmlns:xlink="http://www.w3.org/1999/xlink" x="0px" y="0px"
	 viewBox="0 0 1600 900" style="enable-background:new 0 0 1600 900;" xml:space="preserve">
<style type="text/css">
	.st0{fill:none;}
	.st1{fill:#010101;}
</style>
<g id="XMLID_5_">
	<path id="XMLID_56_" class="st0" d="M419.5,800.7c-3.9-1.1-4-1.5-0.8-3.4c7.2-4.2,11.3-13.3,11.2-24.5
		c-0.1-11.5-6.8-21.4-16.8-25.2c-7.6-2.8-10.3-3.1-34.6-3.1c-19.9,0-23.4,0.1-23.9,1c-0.7,1-0.2,114.2,0.5,115.3
		c0.5,0.7,36.6,0.6,46.1-0.1c19-1.5,29.9-8.4,33.9-21.6c1.8-5.8,1.8-15.5,0-21.3C432.7,810.1,425.8,802.5,419.5,800.7z M364.7,788.2
		c0.3-4.4,0.5-13.6,0.5-20.3v-12.3l13.4-0.5c17.2-0.6,24.8,0.1,30.7,3c7.6,3.8,10.6,8.7,10.6,17.4c0,10.7-5.4,17.3-15.9,19.7
		c-3.5,0.8-8.6,1.1-22.1,1.1h-17.6L364.7,788.2z M425.9,832.9c-2,9.3-6.3,13.6-16.6,16.8c-3,0.9-7.2,1.2-24.1,1.4
		c-11.2,0.3-20.5,0.3-20.7,0.1c-0.2-0.2-0.2-10.4,0-22.6l0.3-22.2l19.6-0.2c20.9-0.2,25.1,0.3,30.9,3.2
		C423.8,813.7,428,823.1,425.9,832.9z"/>
	<path id="XMLID_60_" class="st0" d="M760.1,279.6c0.3-21.3,0.4-39.1,0.1-39.7c-0.3-0.9-1.6-1.1-7.5-1.1c-8.3-0.1-9.2,0.3-9.3,4.7
		c-0.1,7.8-5,20-9.1,23c-2.7,2-5.4,2.7-12.6,3.6c-6.3,0.7-45.9,1.3-46.6,0.7s1.3-199.8,2-200.2c0.3-0.2,17.1-0.3,37.2-0.3
		c36.4,0,36.6,0.1,41.3,1.5c4,1.3,5.3,2.1,8.6,5.4c4.3,4.5,8.3,11,10.7,17.5c1.6,4.5,4.1,18.5,4,23s-0.2,4.5,9.2,4.6
		c4.9,0.1,8.6-0.1,8.9-0.5c0.2-0.3,0.6-15.4,0.8-33.4c0.3-24.9,0.2-32.9-0.4-33.6c-0.6-0.7-8.8-0.8-37.4-0.7
		c-20.1,0.1-60.7,0.1-90.3,0.1c-30.5,0-54.2,0.3-54.9,0.6c-1.1,0.5-1.2,1.4-1.1,8.3l0.1,7.7l3.4,0.1c5.2,0.2,9,2.9,11.8,8.3
		c1.1,2.1,1.2,4.6,1.2,28.6c0,29.2-2.1,222-3.4,313.2c-0.9,63.8-0.7,61.4-4.7,65.8c-2.8,3-5.3,4.2-8.7,3.9c-1.6-0.1-3.2,0-3.6,0.3
		c-0.5,0.3-0.9,3.2-0.9,9.1l-0.1,8.6l38.6,0.2c29.7,0.2,38.8,0,39.6-0.6c0.9-0.7,1-2.3,0.9-8.8l-0.1-8l-4.5-0.5
		c-4.3-0.4-4.7-0.7-7-3.2c-1.3-1.5-2.7-3.8-3-5.3c-0.4-1.6-0.2-39.5,0.5-98.9l1.1-96.4l21.6,0.1c22.4,0.1,32.4,1,36.5,3.2
		c4.9,2.6,10.5,16.1,10.3,24.9c-0.1,3.6,0.7,4,8.2,4.1c4.3,0.1,6.9-0.2,7.4-0.7C759.3,318.4,759.7,308.7,760.1,279.6z"/>
	<path id="XMLID_61_" class="st0" d="M897.6,509.2c0.9-0.7,1-2.3,0.9-8.8l-0.1-8l-4.5-0.5c-4.3-0.4-4.7-0.7-7-3.2
		c-1.3-1.5-2.7-3.8-3-5.3c-0.4-1.6-0.2-39.5,0.5-98.9l1.1-96.4l21.6,0.1c22.4,0.1,32.4,1,36.5,3.2c4.9,2.6,10.5,16.1,10.3,24.9
		c-0.1,3.6,0.7,4,8.2,4.1c4.3,0.1,6.9-0.2,7.4-0.7c0.6-0.6,0.9-10.3,1.3-39.4c0.3-21.3,0.4-39.1,0.1-39.7c-0.3-0.9-1.6-1.1-7.5-1.1
		c-8.3-0.1-9.2,0.3-9.3,4.7c-0.1,7.8-5,20-9.1,23c-2.7,2-5.4,2.7-12.6,3.6c-6.3,0.7-45.9,1.3-46.6,0.7s1.3-199.8,2-200.2
		c0.3-0.2,17.1-0.3,37.2-0.3c36.4,0,36.6,0.1,41.3,1.5c4,1.3,5.3,2.1,8.6,5.4c4.3,4.5,8.3,11,10.7,17.5c1.6,4.5,4.1,18.5,4,23
		c-0.1,4.5-0.2,4.5,9.2,4.6c4.9,0.1,8.6-0.1,8.9-0.5c0.2-0.3,0.6-15.4,0.8-33.4c0.3-24.9,0.2-32.9-0.4-33.6
		c-0.6-0.7-8.8-0.8-37.4-0.7c-20.1,0.1-60.7,0.1-90.3,0.1c-30.5,0-54.2,0.3-54.9,0.6c-1.1,0.5-1.2,1.4-1.1,8.3l0.1,7.7l3.4,0.1
		c5.2,0.2,9,2.9,11.8,8.3c1.1,2.1,1.2,4.6,1.2,28.6c0,29.2-2.1,222-3.4,313.2c-0.9,63.8-0.7,61.4-4.7,65.8c-2.8,3-5.3,4.2-8.7,3.9
		c-1.6-0.1-3.2,0-3.6,0.3c-0.5,0.3-0.9,3.2-0.9,9.1l-0.1,8.6l38.6,0.2C887.8,510,896.8,509.8,897.6,509.2z"/>
	<path id="XMLID_68_" class="st0" d="M1044.5,510.9c7.3-0.1,44.7,0.1,83.3,0.5c77.6,0.7,82.9,0.6,83.8-0.3
		c0.7-0.7,1.4-47.7,0.9-60.5c-0.3-6.3-0.5-8.1-1.3-8.4c-0.5-0.2-4.7-0.3-9.1-0.1c-7.6,0.3-8.2,0.5-8.4,1.7c-0.1,0.8-0.7,4.9-1.1,9.3
		c-1.6,15.5-5.7,25.7-13.6,33.3c-6.9,6.7-8.1,7-29.6,7.3c-9.8,0.1-26.3,0.1-36.7,0l-18.9-0.2l-0.1-3.8c-0.1-2.1-0.1-10,0-17.6
		c0.1-7.6,0.1-34.5,0.2-59.9c0.1-25.3,0.2-62.6,0.2-82.8c0-20.3,0.3-37,0.5-37.3c0.2-0.3,11.2-0.5,24.4-0.3
		c23.7,0.2,24.1,0.3,27.1,1.7c1.7,0.9,4,2.6,5.1,3.9c3.8,4.5,7,13.4,7.9,22.1l0.3,3.2l8-0.1l8-0.1l0.3-38.8c0.2-21.3,0.2-39.3,0-40
		c-0.3-1-1.3-1.2-7.8-1.3c-5.2-0.1-7.6,0.1-8.1,0.7c-0.4,0.5-0.9,2.6-1.2,4.7c-1.2,9.5-3.8,16-8.3,20.3c-4.6,4.5-6,4.7-32,4.5
		c-12.5-0.1-23-0.3-23.4-0.6c-0.5-0.3-0.7-12.2-0.6-38.2c0.1-20.7,0.1-66.1,0.2-100.7c0.1-34.6,0.3-63.2,0.5-63.4
		c0.7-0.7,66.3-0.6,70.2,0.1c5.3,0.9,10.1,3.5,14,7.6c3.8,4,8,10.7,10.1,16.3c1.5,4,3.6,14.4,4,20.9c0.6,7.5-0.2,6.9,9.4,7
		c6,0.1,8.6-0.1,9.1-0.7c0.7-0.9,1.1-66.5,0.3-67.3c-0.4-0.4-45.1-0.6-149.3-0.5c-27.5,0-29.9,0.1-30.7,1.2
		c-0.6,0.9-0.8,3.1-0.7,8.2c0.1,3.9,0.3,7.2,0.5,7.4c0.2,0.2,1.6,0.3,3.3,0.2c5.4-0.3,10.5,4.1,11.9,10.3
		c0.8,3.2,0.8,18.3,0.5,163.8c-0.1,30.1-0.1,66-0.1,79.9c0,13.9-0.3,54.7-0.5,90.6c-0.6,73.7-0.3,70-5.5,74.9
		c-2.4,2.3-3,2.5-6.6,2.6c-2.5,0.1-4.2,0.4-4.6,0.9c-0.3,0.5-0.6,4.2-0.7,8.2c-0.1,5.9,0.1,7.6,0.9,8.4
		C1031.4,510.9,1033.3,511.1,1044.5,510.9z"/>
	<path id="XMLID_71_" class="st0" d="M403.3,449c10.7,33.8,36.6,55.7,73.2,61.8c4.1,0.7,20.7,0.1,25.7-0.9
		c11.8-2.3,25.3-7.8,35.5-14.5c5.6-3.7,15.7-13.2,19.9-18.6c14-18.1,20.1-39.3,23-80.3c1.1-15.5,2.9-144.2,2.6-184.5
		c-0.3-42.5-1.1-56.8-4.5-81.3c-3-21.4-7.2-31.5-18.8-45.8c-7-8.6-18.4-17.6-22.4-17.6c-1.4,0-2.2-0.5-2.6-1.5
		c-0.9-2-12.5-6.8-22.2-9.2c-9.3-2.3-24.9-2.8-34.1-1.1c-16.2,3-33.3,11.2-44.9,21.4c-9.1,8.1-18.4,21.4-22.8,32.8
		c-4.5,11.9-8.8,35.8-10.9,62.2c-1.4,17.6-4.3,216.4-3.3,230.9C398,423.6,400.3,439.2,403.3,449z M442.9,284.1
		c2.1-149.9,2.3-158.2,3.5-165c3.2-17.7,7.3-26.6,15.7-34.5c6.1-5.8,13.7-9.9,20.9-11.3c5.1-1,16.3-0.7,20.9,0.6
		c15,4.1,26.4,16.3,31.1,33.2c3.6,13.1,3.6,13.2,3,98.2c-0.3,43-1.2,113-1.9,155.3c-1.1,66.3-1.4,78.3-2.5,85.9
		c-3.8,27.8-13.3,41.8-31.9,47.2c-5.7,1.6-20.9,1.6-26.8,0c-8.2-2.2-13.1-5.1-18.6-10.8c-7.4-7.7-12.2-19-14.5-33.6
		C440.7,442.3,440.8,434.5,442.9,284.1z"/>
	<path id="XMLID_72_" class="st0" d="M709.5,616.9c0.9-1.1,0.4-6.1-0.6-6.4c-0.8-0.3-80.2,0.3-201.3,1.4c-52,0.5-67,0.8-67.7,1.4
		c-0.7,0.5-0.9,1.7-0.8,3.5c0.3,3.2,1.4,3.7,8.1,3.4c2.5-0.1,31-0.4,63.2-0.6C697.4,618.4,708.4,618.3,709.5,616.9z"/>
	<path id="XMLID_73_" class="st0" d="M527.2,850l-29.5,0.3l-29.5,0.3v-53v-53h-4.9h-4.9l0.1,44.7c0.1,24.6,0.1,50.7,0.2,58.1
		l0.1,13.4h33.8c18.5-0.1,34-0.3,34.5-0.6c1.2-0.7,1.8-6.1,0.9-8.3L527.2,850z"/>
	<path id="XMLID_74_" class="st0" d="M674.1,849.8v-21.9V806l4.8-0.1c2.6-0.1,14.9-0.3,27.2-0.5l22.4-0.4l0.2-4.8l0.2-4.8h-27.4
		h-27.4l0.2-21.2l0.2-21.3l30.1-0.3c20.7-0.2,30.3-0.5,30.9-1.1c0.4-0.4,0.7-2.5,0.5-4.9l-0.2-4.2h-35.3c-29.1,0-35.5,0.1-36.4,0.9
		c-1,0.9-1.1,3.8-0.8,36.8c0.5,52.2,1.1,78.6,1.6,79c0.6,0.6,69.1,0.3,70.3-0.1c0.5-0.2,0.9-1.8,0.9-4.9v-4.7l-31,0.2L674.1,849.8z"
		/>
	<path id="XMLID_75_" class="st0" d="M636.4,742.9H632c-3.1,0-4.7,0.3-5.3,1s-0.7,10.1-0.6,40c0.2,38.4,0.2,39.1-1.3,44.1
		c-3.4,12.2-8.9,18.2-20.5,22.3c-5.3,1.8-15.4,2.3-22.4,0.9c-13.8-2.6-21-9.1-25.3-22.9c-1.5-4.8-1.5-5.1-1.5-44.4
		c0-21.8-0.1-39.7-0.3-39.9s-2.4-0.4-4.9-0.5c-3.2-0.1-4.7,0.1-5.1,0.8c-1.1,1.5-0.1,75.2,1.1,81.9c3.2,18.3,13.2,29.3,30.6,33.8
		c5.7,1.5,18.1,1.8,25.1,0.7c21.1-3.4,33-17.4,34.9-41.1c0.7-8.8,1-60.5,0.3-69.9L636.4,742.9z"/>
	<path id="XMLID_78_" class="st0" d="M823.4,658.7c4.1,0,8.9-2.6,12.5-6.7c6.3-7.3,14.9-24.3,13.8-27.4c-1.4-3.9-3.6-1.8-9.8,9.4
		c-2.5,4.6-6,9.8-7.6,11.6c-2.6,2.8-3.2,3.2-4.4,2.6c-2-1.1-2.3-4.9-1.1-12.3c1.1-6.5,5-22.6,9.1-37.1l2.2-7.6l6.8-1.4
		c5.4-1.1,7.1-1.7,8.6-3.2c1.8-1.8,1.8-1.8,0.5-3.1c-0.9-0.9-3-1.5-6.6-2c-2.9-0.4-5.5-0.9-5.7-1.2c-0.3-0.2,0.3-3,1.2-6
		c2.2-7.6,2-12-0.9-14.5c-2.2-2-5.7-3-8.4-2.3c-3.6,0.9-4.8,3-7.6,12.4c-1.4,5-2.8,9.3-3,9.7c-0.2,0.3-1.8,0.7-3.5,0.7
		c-3.5,0-4.2,0.3-5.3,2.4c-1.9,3.7-0.2,7.8,3.6,8.5c1.3,0.3,2.3,0.8,2.3,1.2s-0.9,4.7-2,9.5c-1.1,4.8-2.6,12.4-3.4,16.8
		c-1.3,7.3-1.8,8.8-5.7,16.3c-5,9.7-7.4,12.9-9.1,12.2c-1.1-0.4-1.1-1-0.8-4.5c0.3-2.2,1.1-7,2-10.7c6.5-27.4,7-30.1,6.6-32.8
		c-0.6-3.4-4.5-7.6-7.1-7.6c-1.4,0-1.8-0.5-2.5-2.8c-1.1-3.6-5-7.6-8-8.1c-3.2-0.6-8.9,1.2-12.4,3.8c-6.8,5.2-14.1,18.4-17.8,32.6
		c-1.9,7.1-2,8.6-2.1,18.9c-0.1,9,0.2,11.8,1.1,14.5c2.4,6.6,8.1,10.2,13.3,8.2c2.5-0.9,6.6-4.9,9.1-8.7c2.4-3.7,2.3-3.7,3.5,1.6
		c0.6,2.6,4.1,6.3,6.9,7.2c5.5,1.6,11.6-2,17-10.1l3.4-5.1l0.8,4.1C813.9,655.3,817.4,658.7,823.4,658.7z M791.4,603
		c-0.7,3-2.1,8.9-3,13.3c-3.1,14.3-8.4,26.8-12.4,29.6c-1.8,1.3-2.2,1.3-3.2-0.5c-1.1-2-0.3-13.6,1.4-21.9
		c3.8-18.6,10.2-31.9,15.1-31.9C793.1,591.6,793.6,594.2,791.4,603z"/>
	<path id="XMLID_81_" class="st0" d="M881.1,798.4c-3.9-1.8-3.9-1.8-2.5-2.8c7.4-4.9,11.6-13.8,11.6-24.5c0-7-1.2-11.3-4.8-16.6
		c-3.5-5.1-8.2-8.6-15.3-10.9l-5.3-1.8l-24.7-0.3c-22.8-0.3-24.9-0.2-25.9,0.9c-1.1,1.1-1.2,13.5-0.1,76.9
		c0.1,3.6,0.2,13.9,0.3,22.9l0.1,16.3l26.8-0.3c23-0.2,27.4-0.4,31.1-1.4c11.6-3.2,18.8-8.9,22.4-18.2c1.9-4.9,2.2-6.2,2.2-12.4
		c0-7.2-0.8-11.1-3.5-16.3C891.5,806,885.7,800.6,881.1,798.4z M824.7,753c0.5-1.3,32.9-1.1,38.4,0.2c7.6,1.8,12.7,5.7,15.1,11.5
		c1.8,4.4,1.6,14.5-0.3,18.1c-3,5.6-8.5,9.1-16.2,10.2c-3.8,0.5-37.2,1.2-37.7,0.7C823.8,793.4,824.4,753.9,824.7,753z M878.7,843.7
		c-5.1,3.5-9.6,4.6-20.1,4.9c-19.2,0.5-33.6,0.7-33.9,0.3c-0.2-0.2-0.3-10.5-0.3-23v-22.6l21.3,0.3c22.8,0.3,24.3,0.5,31.4,4.1
		c5.9,3,9.2,8.5,9.7,16.3C887.4,832.2,884.2,839.9,878.7,843.7z"/>
	<path id="XMLID_83_" class="st0" d="M331.4,496.8c-0.2,0.3-0.7,8.9-1.1,19.1c-0.9,22.6-2.3,36-5.1,48.1
		c-2.7,11.4-4.6,17.2-8.9,25.7c-4.3,8.8-8.6,14.8-14.9,21.4c-11.8,12.1-28.2,19.6-49,22.3c-8.8,1.1-23.3,1-29.7-0.3
		c-24.4-5-41.3-25.7-46.3-56.4c-2.6-16-2.6-22.8-1.4-114.3c0.7-48.3,1.3-89.9,1.3-92.4c0.1-2.5,0.7-22.6,1.3-44.7
		c0.7-22,1.9-68.7,2.8-103.6c0.9-34.9,1.9-67.3,2.4-72c3-33.2,16.1-57.8,36.1-67.7c11.8-5.9,23.6-8.4,37.4-8.2
		c11.6,0.2,19,2,29.3,7.2c20.1,10.1,34.7,28.6,42.6,53.9c3.3,10.5,7.2,36.8,8,53.4c0.5,11-0.6,9.9,9.9,10c5,0.1,9.5-0.1,10.1-0.5
		c0.9-0.5,1.1-9.5,2.2-72.9c1-58.1,1.1-72.4,0.3-73c-0.9-0.8-19.5-1.6-20.7-0.9c-0.4,0.3-0.9,2-1.3,3.9c-1.3,8.8-4.3,14.4-9.3,16.8
		c-4.1,2-8.1,1.4-16.1-2.8c-18-9.3-27.8-13.1-41.6-16.1c-7.2-1.5-9.6-1.7-19.4-1.7c-22,0.1-39.3,4-57.5,13
		c-18.7,9.3-35.7,24.3-45.5,40.4c-1.6,2.7-3.9,6.3-4.9,7.9c-10.3,16.6-16.7,50-19.8,103.1c-1.8,31.2-5.7,181.6-6.3,245.3
		c-0.5,49.5,1.4,80,6.1,100.4c5.8,25.4,14.3,42.1,30.4,59.3c16.1,17.2,41.4,30.1,66.5,33.9c6.6,1,33.5,0.7,40.8-0.4
		c13.8-2.2,23.5-5,33.9-10.1c28.7-13.9,47.2-39.1,54.1-73.6c2.4-12.1,3-19.7,3.4-47.4l0.4-26.6l-2.8-0.1
		C341.6,495.9,331.7,496.3,331.4,496.8z"/>
	<path id="XMLID_84_" class="st0" d="M1482.4,567.6c-6.8,0.1-11.1,0.5-11.7,0.9c-0.7,0.5-1.1,3-1.5,7.5
		c-1.7,21.4-5.5,34.4-13.1,44.7c-3.8,5.1-10.1,10.9-13.9,12.6c-7,3.3-7.6,3.3-57.8,2.8l-47-0.5l-0.1-12.8c0-7-0.1-27.2,0-44.7
		c0.1-17.6,0-48.5,0-68.8c-0.2-117.2-0.1-142.5,0.3-142.9c0.9-0.9,59.9-0.3,63.8,0.6c4.8,1.1,9.9,4.7,13,9.3
		c4.8,7,8.8,20.2,8.8,28.2c-0.1,3.6,0.5,3.8,11.5,3.6c6.4-0.1,8.4-0.4,9.3-1.2c1-0.9,1.1-5.5,1-52.2c-0.1-28.1-0.2-51.5-0.4-52
		c-0.6-1.5-2.6-1.8-11.8-1.4c-7.2,0.3-8.9,0.5-9.4,1.4c-0.3,0.6-0.8,3.8-1,7c-0.6,7.6-2.1,13.2-5.1,18.8
		c-2.8,5.1-8.7,10.8-12.6,12.1c-2,0.7-10.4,0.9-34.5,0.9c-17.6,0-32.1-0.1-32.4-0.2c-0.7-0.4-0.8-30.3-0.8-130.6
		c0-26.6,0-68.8-0.1-93.7c-0.1-36.2,0.1-45.4,0.7-45.8c1.1-0.7,87.2-0.4,92,0.3c8,1.1,13.8,4.3,19.9,10.9
		c7.2,7.8,12.6,17.7,15.1,27.8c1.7,6.6,3.9,22,3.9,26.4c0,1.6,0.4,3,0.9,3.5c1.3,1.1,21.7,1,22.8-0.1c0.5-0.5,0.9-7.6,1-24.6
		c0.1-13.1,0.1-24.1,0-24.3c-0.1-0.3-0.2-9-0.1-19.5c0.1-10.5-0.1-19.5-0.5-20.2c-0.5-1.1-2.4-1.2-26.1-1.5
		c-14-0.2-37.6-0.3-52.5-0.1s-43.9,0.2-64.5,0.1c-91.2-0.2-93.9-0.2-95,1.3c-0.7,0.9-0.9,2.1-0.7,3.6c0.2,1.3,0.3,5.6,0.3,9.7
		l-0.1,7.4h4.8c5,0,7.1,0.7,10.3,3.8c2.4,2.2,4.1,5.1,5.4,8.8c1.3,4,1.6,20.5,1.6,100.3c0,29.1,0,72.2,0,95.7
		c0,23.6-0.1,79.9-0.1,125.3c-0.1,45.4-0.1,104.9-0.1,132.2c0.1,70.1-0.1,80.7-1.1,84.2c-1.2,4-4,7.8-7.4,10.1
		c-2.6,1.8-3.4,2-7.9,1.9l-5.1-0.1l-0.3,10.2c-0.2,5.6-0.2,10.9,0.1,11.8l0.4,1.6l104.9,1.1c57.5,0.7,111.4,1.1,119.7,0.9
		c14.1-0.2,15-0.3,15.4-1.4c0.7-2.1,0.1-88.2-0.6-89.6C1493.3,567.5,1492.5,567.4,1482.4,567.6z"/>
	<path id="XMLID_85_" class="st0" d="M1256.6,739.9c-0.7,0.8-3.9,11.5-18.2,59.6c-7.8,26.4-10.5,35.4-11.1,37.8
		c-0.4,1.4-0.9,2.8-1.1,3.1c-0.3,0.3-1.3-2.6-2.4-6.3c-1.1-3.7-5.7-18.2-10.3-32s-11-33.7-14.3-43.9l-6-18.6h-4.8
		c-3.1,0-5.1,0.3-5.5,0.9c-0.3,0.5-2.2,6-4.1,12.4c-1.9,6.3-4.3,14.2-5.3,17.4c-1.1,3.2-3.2,10.5-4.9,16.1
		c-1.7,5.6-3.8,12.4-4.6,15.1c-0.9,2.7-3.8,12.6-6.6,22c-4.8,16.2-6.3,20.1-6.3,17c0-1.7-1-4.9-11.3-36.4
		c-4.7-14.3-9.9-30.9-11.8-36.8c-5.1-16.8-8.6-26.5-9.5-27.1c-1.3-0.9-8-0.6-9.3,0.3c-1.3,1-2-1.2,16.6,53.1
		c7.6,22,12.8,37.7,17.2,51.6c1.8,5.8,3.5,10.9,3.7,11.4c0.2,0.5,1.8,0.9,4.8,0.9c3-0.1,4.9-0.4,5.3-0.9c0.3-0.5,2.2-5.9,4.1-12
		c6.7-21.6,18-58.6,19.4-63.5c2.2-7.7,7.1-22.8,7.5-23.2c0.3-0.3,2.4,5.2,4.6,12.2c13.9,42.3,28.6,85.8,29.1,86.3
		c0.7,0.7,8,1.3,8.9,0.6c0.7-0.5,3-7.6,11.1-33.7c7.9-25.7,9.2-29.7,14.5-46.1c7.4-22.6,11.4-36.2,11.1-37.2
		C1266.8,738.6,1257.7,738.6,1256.6,739.9z"/>
	<path id="XMLID_86_" class="st0" d="M1065,847.7l-30.8,0.3v-22.1v-22l27.5-0.2l27.5-0.2l0.4-1.5c0.2-0.9,0.3-3,0.2-4.7l-0.2-3.2
		l-27.8-0.2l-27.8-0.2v-21.3v-21.3l2-0.4c1.1-0.2,15-0.4,30.9-0.4c24.1,0,28.9-0.1,29.6-0.9c0.5-0.5,0.7-2.5,0.6-4.8l-0.2-3.8
		l-36.2-0.2c-23.9-0.1-36.4,0.1-36.8,0.5c-0.5,0.5-0.6,9.1-0.5,25.2c0.5,53.3,1.1,90.3,1.6,91.2c0.5,0.7,7,0.9,36.1,0.6
		c19.4-0.1,35.5-0.4,35.7-0.5c0.2-0.2,0.5-2.1,0.7-4.3c0.2-3,0.1-4.2-0.7-4.8C1096.1,847.6,1088.4,847.5,1065,847.7z"/>
	<path id="XMLID_87_" class="st0" d="M1164.1,613.8c0.9-0.8,1.2-6.2,0.3-6.7c-1-0.6-270.4,1.6-271.9,2.2c-1.4,0.6-2.2,3.5-1.6,6.2
		c0.2,1.4-20.7,1.4,190.1-0.3C1137,614.8,1163.6,614.3,1164.1,613.8z"/>
	<path id="XMLID_90_" class="st0" d="M982.3,823.2l-9.6-14.8l4.2-1.4c10.5-3.6,18.4-11.8,21.1-22.4c1.1-4.3,1.3-13.6,0.3-18.6
		c-1.6-8.6-7.8-16.7-15.5-20.5c-8.2-4-8.9-4.1-37.1-4.4c-19.9-0.2-26.1-0.1-26.9,0.5c-0.9,0.7-0.9,6.6-0.6,47.2
		c0.2,25.5,0.5,51.5,0.8,57.8c0.4,10.9,0.5,11.3,1.8,11.6c1.2,0.3,6.3,0.2,7.8-0.1c0.3-0.1,0.5-10.9,0.5-24.1v-24h16.1h16.1l6.1,9.3
		c15.2,23.2,19.7,30.1,22.6,34.3l3,4.5h5.3c4.5,0,5.3-0.1,5.3-1.2c0-0.7-2.6-5.1-5.9-10.1C994.5,842,987.6,831.3,982.3,823.2z
		 M966.4,799.5c-5.8,0.8-37,0.9-37.5,0.1c-0.2-0.3-0.3-11.2-0.1-24.2l0.3-23.6l17.5-0.2c23.4-0.3,29.3,1,35.7,7.4
		c4.1,4.1,5.7,8.9,5.8,17.4c0.1,5.9-0.1,7.4-1.5,10.4C983.4,793.7,976.2,798.2,966.4,799.5z"/>
	<path id="XMLID_91_" class="st1" d="M404,795.2c10.5-2.4,15.9-9,15.9-19.7c0-8.7-3-13.6-10.6-17.4c-5.9-2.9-13.5-3.6-30.7-3
		l-13.4,0.5v12.3c0,6.8-0.2,15.9-0.5,20.3l-0.4,8h17.6C395.5,796.2,400.5,795.9,404,795.2z"/>
	<path id="XMLID_92_" class="st1" d="M415.3,809.4c-5.7-2.9-9.9-3.4-30.9-3.2l-19.6,0.2l-0.3,22.2c-0.2,12.2-0.2,22.4,0,22.6
		c0.2,0.2,9.5,0.2,20.7-0.1c16.8-0.3,21.1-0.5,24.1-1.4c10.3-3.2,14.6-7.6,16.6-16.8C428,823.1,423.8,813.7,415.3,809.4z"/>
	<path id="XMLID_93_" class="st1" d="M456.3,482.8c5.5,5.7,10.4,8.6,18.6,10.8c5.9,1.6,21.1,1.6,26.8,0
		c18.6-5.4,28.1-19.4,31.9-47.2c1.1-7.6,1.4-19.6,2.5-85.9c0.7-42.4,1.6-112.3,1.9-155.3c0.7-85,0.7-85.1-3-98.2
		c-4.6-16.8-16.1-29.1-31.1-33.2c-4.6-1.3-15.9-1.6-20.9-0.6c-7.2,1.4-14.9,5.5-20.9,11.3c-8.4,7.9-12.4,16.8-15.7,34.5
		c-1.2,6.8-1.4,15.1-3.5,165c-2.1,150.4-2.2,158.2-1.1,165.1C444,463.8,448.9,475.1,456.3,482.8z"/>
	<path id="XMLID_96_" class="st1" d="M800-0.5H76V0h33v899.5h691h704.2v-900H800z M1029.6,501.6c0.1-4,0.3-7.8,0.7-8.2
		c0.4-0.5,2.1-0.9,4.6-0.9c3.7-0.1,4.2-0.3,6.6-2.6c5.3-4.9,4.9-1.3,5.5-74.9c0.3-35.9,0.5-76.6,0.5-90.6c0-13.9,0.1-49.9,0.1-79.9
		c0.3-145.5,0.3-160.6-0.5-163.8c-1.4-6.1-6.5-10.5-11.9-10.3c-1.6,0.1-3.1,0-3.3-0.2c-0.1-0.2-0.4-3.5-0.5-7.4
		c-0.1-5.1,0.1-7.3,0.7-8.2c0.8-1.1,3.2-1.2,30.7-1.2c104.3-0.1,148.9,0.1,149.3,0.5c0.7,0.8,0.4,66.4-0.3,67.3
		c-0.5,0.6-3.1,0.8-9.1,0.7c-9.6-0.1-8.8,0.5-9.4-7c-0.5-6.5-2.5-16.9-4-20.9c-2.1-5.5-6.3-12.2-10.1-16.3c-3.9-4.1-8.7-6.7-14-7.6
		c-3.9-0.7-69.5-0.8-70.2-0.1c-0.3,0.3-0.5,28.8-0.5,63.4c-0.1,34.6-0.1,79.9-0.2,100.7c-0.1,25.9,0.1,37.8,0.6,38.2
		c0.4,0.3,10.9,0.5,23.4,0.6c26,0.1,27.4-0.1,32-4.5c4.5-4.3,7.1-10.9,8.3-20.3c0.3-2.2,0.8-4.3,1.2-4.7c0.5-0.6,2.9-0.8,8.1-0.7
		c6.5,0.1,7.5,0.3,7.8,1.3c0.2,0.7,0.2,18.7,0,40l-0.3,38.8l-8,0.1l-8,0.1l-0.3-3.2c-0.9-8.8-4.1-17.6-7.9-22.1
		c-1.1-1.4-3.4-3.1-5.1-3.9c-3-1.4-3.4-1.5-27.1-1.7c-13.2-0.1-24.2,0-24.4,0.3c-0.2,0.3-0.5,17-0.5,37.3c0,20.3-0.1,57.5-0.2,82.8
		c-0.1,25.3-0.1,52.3-0.2,59.9c-0.1,7.6-0.1,15.5,0,17.6l0.1,3.8l18.9,0.2c10.4,0.1,26.9,0.1,36.7,0c21.5-0.3,22.7-0.6,29.6-7.3
		c7.8-7.6,12-17.8,13.6-33.3c0.5-4.3,1-8.5,1.1-9.3c0.3-1.3,0.9-1.4,8.4-1.7c4.5-0.2,8.6-0.1,9.1,0.1c0.8,0.3,1.1,2.1,1.3,8.4
		c0.5,12.8-0.2,59.8-0.9,60.5c-0.9,0.9-6.3,0.9-83.8,0.3c-38.6-0.3-76-0.5-83.3-0.5c-11.3,0.1-13.1,0-14-0.9
		C1029.7,509.2,1029.5,507.5,1029.6,501.6z M819.6,501c0.1-5.9,0.4-8.8,0.9-9.1c0.5-0.3,2-0.4,3.6-0.3c3.4,0.3,5.9-0.9,8.7-3.9
		c4-4.4,3.8-2,4.7-65.8c1.3-91.2,3.4-283.9,3.4-313.2c0-24-0.1-26.5-1.2-28.6c-2.8-5.4-6.6-8.1-11.8-8.3l-3.4-0.1l-0.1-7.7
		c-0.1-6.8,0.1-7.8,1.1-8.3c0.7-0.3,24.3-0.6,54.9-0.6c29.5-0.1,70.1-0.1,90.3-0.1c28.6-0.1,36.8,0.1,37.4,0.7
		c0.6,0.7,0.7,8.7,0.4,33.6c-0.2,18-0.6,33-0.8,33.4c-0.3,0.4-4,0.6-8.9,0.5c-9.4-0.1-9.3-0.1-9.2-4.6c0.1-4.5-2.4-18.5-4-23
		c-2.4-6.5-6.3-13-10.7-17.5c-3.3-3.3-4.5-4.1-8.6-5.4c-4.7-1.4-4.9-1.5-41.3-1.5c-20.1,0-36.9,0.1-37.2,0.3
		c-0.7,0.4-2.8,199.6-2,200.2s40.3,0.1,46.6-0.7c7.2-0.9,9.9-1.6,12.6-3.6c4.1-3,9-15.3,9.1-23c0.1-4.3,1-4.8,9.3-4.7
		c5.9,0.1,7.2,0.3,7.5,1.1c0.3,0.6,0.2,18.4-0.1,39.7c-0.4,29.1-0.7,38.8-1.3,39.4c-0.5,0.5-3.2,0.7-7.4,0.7
		c-7.4-0.1-8.2-0.5-8.2-4.1c0.1-8.8-5.5-22.3-10.3-24.9c-4.1-2.2-14.1-3.1-36.5-3.2l-21.6-0.1l-1.1,96.4
		c-0.7,59.4-0.9,97.4-0.5,98.9c0.3,1.4,1.7,3.8,3,5.3c2.3,2.5,2.7,2.8,7,3.2l4.5,0.5l0.1,8c0.1,6.4-0.1,8.1-0.9,8.8
		c-0.8,0.6-9.9,0.7-39.6,0.6l-38.6-0.2L819.6,501z M399.8,171.9c2.2-26.4,6.4-50.3,10.9-62.2c4.3-11.3,13.6-24.7,22.8-32.8
		c11.6-10.3,28.7-18.4,44.9-21.4c9.3-1.8,24.8-1.3,34.1,1.1c9.7,2.4,21.4,7.2,22.2,9.2c0.5,1.1,1.2,1.5,2.6,1.5
		c3.9,0.1,15.3,9,22.4,17.6c11.6,14.3,15.9,24.4,18.8,45.8c3.4,24.5,4.2,38.8,4.5,81.3c0.3,40.3-1.4,169.1-2.6,184.5
		c-2.9,40.9-9,62.2-23,80.3c-4.2,5.5-14.3,14.9-19.9,18.6c-10.2,6.8-23.6,12.2-35.5,14.5c-5.1,1-21.6,1.6-25.7,0.9
		c-36.6-6.1-62.6-28-73.2-61.8c-3-9.8-5.3-25.4-6.8-46.2C395.5,388.4,398.4,189.5,399.8,171.9z M351.5,522.9
		c-0.4,27.6-0.9,35.3-3.4,47.4c-6.9,34.4-25.5,59.6-54.1,73.6c-10.5,5.1-20.1,8-33.9,10.1c-7.3,1.1-34.2,1.4-40.8,0.4
		c-25.1-3.8-50.5-16.7-66.5-33.9c-16.1-17.2-24.6-33.9-30.4-59.3c-4.7-20.4-6.5-50.9-6.1-100.4c0.6-63.8,4.5-214.1,6.3-245.3
		c3.1-53.1,9.5-86.5,19.8-103.1c1-1.6,3.2-5.2,4.9-7.9c9.9-16.1,26.8-31.1,45.5-40.4c18.2-9,35.5-13,57.5-13
		c9.8,0,12.2,0.2,19.4,1.7c13.7,3,23.6,6.7,41.6,16.1c8,4.1,11.9,4.8,16.1,2.8c4.9-2.4,8-8,9.3-16.8c0.3-1.9,0.9-3.6,1.3-3.9
		c1.2-0.7,19.8,0.1,20.7,0.9c0.7,0.6,0.7,14.9-0.3,73c-1.1,63.4-1.3,72.4-2.2,72.9c-0.6,0.4-5.1,0.6-10.1,0.5
		c-10.5-0.1-9.4,1-9.9-10c-0.8-16.6-4.7-43-8-53.4c-7.9-25.3-22.5-43.8-42.6-53.9c-10.3-5.1-17.6-7-29.3-7.2
		c-13.8-0.3-25.6,2.3-37.4,8.2c-20,9.9-33.1,34.5-36.1,67.7c-0.5,4.7-1.5,37.1-2.4,72c-0.9,34.9-2.2,81.6-2.8,103.6
		c-0.7,22.1-1.3,42.2-1.3,44.7c-0.1,2.6-0.7,44.1-1.3,92.4c-1.2,91.6-1.1,98.4,1.4,114.3c4.9,30.7,21.8,51.4,46.3,56.4
		c6.4,1.3,20.9,1.4,29.7,0.3c20.8-2.7,37.2-10.2,49-22.3c6.4-6.6,10.6-12.6,14.9-21.4c4.3-8.6,6.2-14.3,8.9-25.7
		c2.8-12.1,4.2-25.5,5.1-48.1c0.4-10.2,0.9-18.8,1.1-19.1c0.3-0.5,10.2-0.9,17.7-0.6l2.8,0.1L351.5,522.9z M435.1,839.1
		c-4.1,13.2-14.9,20.1-33.9,21.6c-9.4,0.7-45.6,0.9-46.1,0.1c-0.7-1.1-1.1-114.3-0.5-115.3c0.5-0.9,3.9-1,23.9-1
		c24.3,0,27,0.3,34.6,3.1c10.1,3.8,16.7,13.7,16.8,25.2c0.1,11.2-4,20.3-11.2,24.5c-3.2,1.9-3.1,2.3,0.8,3.4
		c6.3,1.8,13.2,9.4,15.5,17.1C436.8,823.6,436.8,833.3,435.1,839.1z M439.1,616.8c-0.1-1.8,0.1-3,0.8-3.5c0.7-0.7,15.7-1,67.7-1.4
		c121.1-1.1,200.5-1.6,201.3-1.4c1,0.3,1.4,5.3,0.6,6.4c-1.1,1.4-12,1.5-199,2.6c-32.2,0.2-60.7,0.5-63.2,0.6
		C440.5,620.5,439.4,620,439.1,616.8z M527,860.2c-0.5,0.3-16,0.5-34.5,0.6h-33.8l-0.1-13.4c-0.1-7.4-0.1-33.5-0.2-58.1l-0.1-44.7
		h4.9h4.9v53v53l29.5-0.3l29.5-0.3l0.7,1.9C528.8,854,528.2,859.4,527,860.2z M636.6,819.6c-2,23.7-13.8,37.6-34.9,41.1
		c-7,1.2-19.3,0.9-25.1-0.7c-17.4-4.5-27.4-15.5-30.6-33.8c-1.2-6.7-2.2-80.4-1.1-81.9c0.5-0.7,1.9-0.9,5.1-0.8
		c2.5,0.1,4.7,0.3,4.9,0.5s0.3,18.2,0.3,39.9c0,39.3,0,39.6,1.5,44.4c4.3,13.8,11.5,20.3,25.3,22.9c7,1.4,17.1,0.9,22.4-0.9
		c11.6-4.1,17.1-10.1,20.5-22.3c1.4-5.1,1.4-5.7,1.3-44.1c-0.1-29.9,0-39.3,0.6-40s2.2-1,5.3-1h4.5l0.5,6.8
		C637.6,759.1,637.3,810.8,636.6,819.6z M736.1,854.1c0,3.1-0.3,4.7-0.9,4.9c-1.2,0.4-69.7,0.7-70.3,0.1c-0.6-0.4-1.2-26.8-1.6-79
		c-0.3-33-0.2-36,0.8-36.8c0.9-0.8,7.2-0.9,36.4-0.9h35.3l0.2,4.2c0.1,2.4-0.1,4.5-0.5,4.9c-0.5,0.5-10.2,0.9-30.9,1.1l-30.1,0.3
		l-0.2,21.3l-0.2,21.2h27.4h27.4l-0.2,4.8l-0.2,4.8l-22.4,0.4c-12.3,0.3-24.5,0.5-27.2,0.5l-4.8,0.1v21.9v21.9l31-0.2l31-0.2V854.1z
		 M751.3,319.6c-7.4-0.1-8.2-0.5-8.2-4.1c0.1-8.8-5.5-22.3-10.3-24.9c-4.1-2.2-14.1-3.1-36.5-3.2l-21.6-0.1l-1.1,96.4
		c-0.7,59.4-0.9,97.4-0.5,98.9c0.3,1.4,1.7,3.8,3,5.3c2.3,2.5,2.7,2.8,7,3.2l4.5,0.5l0.1,8c0.1,6.4-0.1,8.1-0.9,8.8
		c-0.8,0.6-9.9,0.8-39.6,0.6l-38.6-0.2l0.1-8.6c0.1-5.9,0.4-8.7,0.9-9.1c0.5-0.3,2-0.4,3.6-0.3c3.4,0.3,5.9-0.9,8.7-3.9
		c4-4.4,3.8-2,4.7-65.8c1.3-91.2,3.4-283.9,3.4-313.2c0-24-0.1-26.5-1.2-28.6c-2.8-5.4-6.6-8.1-11.8-8.3l-3.4-0.1l-0.1-7.7
		c-0.1-6.8,0.1-7.8,1.1-8.3c0.7-0.3,24.3-0.6,54.9-0.6c29.5-0.1,70.1-0.1,90.3-0.1c28.6-0.1,36.8,0.1,37.4,0.7
		c0.6,0.7,0.7,8.7,0.4,33.6c-0.2,18-0.6,33-0.8,33.4c-0.3,0.4-4,0.6-8.9,0.5c-9.4-0.1-9.3-0.1-9.2-4.6s-2.4-18.5-4-23
		c-2.4-6.5-6.3-13-10.7-17.5c-3.3-3.3-4.5-4.1-8.6-5.4c-4.7-1.4-4.9-1.5-41.3-1.5c-20.1,0-36.9,0.1-37.2,0.3
		c-0.7,0.4-2.8,199.6-2,200.2s40.3,0.1,46.6-0.7c7.2-0.9,9.9-1.6,12.6-3.6c4.1-3,9-15.3,9.1-23c0.1-4.3,1-4.8,9.3-4.7
		c5.9,0.1,7.2,0.3,7.5,1.1c0.3,0.6,0.2,18.4-0.1,39.7c-0.4,29.1-0.7,38.8-1.3,39.4C758.2,319.4,755.6,319.7,751.3,319.6z
		 M811.7,643.6l-3.4,5.1c-5.4,8-11.5,11.7-17,10.1c-2.8-0.9-6.3-4.5-6.9-7.2c-1.2-5.3-1.1-5.3-3.5-1.6c-2.4,3.8-6.6,7.8-9.1,8.7
		c-5.2,2-10.9-1.6-13.3-8.2c-0.9-2.6-1.2-5.5-1.1-14.5c0.1-10.3,0.2-11.8,2.1-18.9c3.7-14.1,11-27.4,17.8-32.6
		c3.4-2.6,9.2-4.4,12.4-3.8c3,0.5,7,4.5,8,8.1c0.7,2.3,1.1,2.8,2.5,2.8c2.6,0,6.5,4.3,7.1,7.6c0.5,2.7-0.1,5.5-6.6,32.8
		c-0.9,3.6-1.7,8.4-2,10.7c-0.3,3.6-0.3,4.1,0.8,4.5c1.8,0.7,4.1-2.6,9.1-12.2c3.9-7.5,4.4-9,5.7-16.3c0.8-4.4,2.3-12,3.4-16.8
		c1.1-4.8,2-9.1,2-9.5s-1.1-0.9-2.3-1.2c-3.8-0.7-5.5-4.8-3.6-8.5c1.1-2.1,1.8-2.4,5.3-2.4c1.7,0,3.3-0.3,3.5-0.7
		c0.2-0.4,1.6-4.7,3-9.7c2.8-9.5,4-11.5,7.6-12.4c2.6-0.7,6.1,0.3,8.4,2.3c2.9,2.6,3.2,7,0.9,14.5c-0.9,3-1.4,5.8-1.2,6
		c0.3,0.3,2.8,0.8,5.7,1.2c3.6,0.5,5.7,1.1,6.6,2c1.3,1.3,1.3,1.3-0.5,3.1c-1.4,1.4-3.2,2.1-8.6,3.2l-6.8,1.4l-2.2,7.6
		c-4.1,14.5-8,30.6-9.1,37.1c-1.2,7.4-0.9,11.3,1.1,12.3c1.2,0.6,1.8,0.3,4.4-2.6c1.6-1.8,5.1-7,7.6-11.6c6.2-11.2,8.4-13.4,9.8-9.4
		c1.1,3-7.4,20.1-13.8,27.4c-3.6,4.1-8.4,6.7-12.5,6.7c-6,0-9.5-3.4-10.9-11L811.7,643.6z M894.9,838.8
		c-3.6,9.3-10.8,15.1-22.4,18.2c-3.7,1.1-8.2,1.3-31.1,1.4l-26.8,0.3l-0.1-16.3c-0.1-8.9-0.2-19.3-0.3-22.9
		c-1.1-63.4-1.1-75.8,0.1-76.9c1.1-1.1,3.1-1.2,25.9-0.9l24.7,0.3l5.3,1.8c7,2.3,11.8,5.7,15.3,10.9c3.6,5.3,4.8,9.5,4.8,16.6
		c0,10.7-4.2,19.5-11.6,24.5c-1.4,0.9-1.4,1,2.5,2.8c4.5,2.1,10.4,7.6,12.5,11.7c2.7,5.2,3.5,9.1,3.5,16.3
		C897.1,832.7,896.8,833.9,894.9,838.8z M890.9,615.6c-0.5-2.7,0.3-5.6,1.6-6.2c1.5-0.6,270.9-2.8,271.9-2.2
		c0.9,0.5,0.7,5.9-0.3,6.7c-0.5,0.5-27.1,0.9-83.2,1.4C870.2,617,891.1,616.9,890.9,615.6z M998.4,858.1h-5.3l-3-4.5
		c-2.8-4.1-7.4-11.1-22.6-34.3l-6.1-9.3h-16.1h-16.1v24c0,13.2-0.3,24-0.5,24.1c-1.5,0.3-6.6,0.3-7.8,0.1c-1.3-0.3-1.4-0.7-1.8-11.6
		c-0.3-6.3-0.6-32.2-0.8-57.8c-0.3-40.6-0.3-46.5,0.6-47.2c0.8-0.6,7-0.7,26.9-0.5c28.2,0.3,28.9,0.4,37.1,4.4
		c7.7,3.8,13.8,11.9,15.5,20.5c1,5.1,0.8,14.3-0.3,18.6c-2.7,10.5-10.5,18.8-21.1,22.4l-4.2,1.4l9.6,14.8
		c5.3,8.2,12.2,18.8,15.5,23.7c3.2,4.9,5.9,9.4,5.9,10.1C1003.6,858,1002.9,858.1,998.4,858.1z M1097.4,853
		c-0.2,2.2-0.5,4.1-0.7,4.3c-0.2,0.1-16.3,0.4-35.7,0.5c-29.1,0.3-35.6,0.1-36.1-0.6c-0.5-0.9-1.2-37.9-1.6-91.2
		c-0.1-16.1,0-24.7,0.5-25.2c0.4-0.5,12.9-0.7,36.8-0.5l36.2,0.2l0.2,3.8c0.1,2.3-0.1,4.3-0.6,4.8c-0.7,0.8-5.5,0.9-29.6,0.9
		c-15.9,0-29.7,0.2-30.9,0.4l-2,0.4v21.3v21.3l27.8,0.2l27.8,0.2l0.2,3.2c0.1,1.8,0,3.9-0.2,4.7l-0.4,1.5l-27.5,0.2l-27.5,0.2v22
		v22.1l30.8-0.3c23.4-0.2,31.1-0.1,31.8,0.5C1097.5,848.8,1097.6,850,1097.4,853z M1256.3,777.1c-5.3,16.3-6.6,20.4-14.5,46.1
		c-8.1,26.2-10.4,33.3-11.1,33.7c-1,0.7-8.3,0.1-8.9-0.6c-0.5-0.5-15.1-43.9-29.1-86.3c-2.2-7-4.3-12.4-4.6-12.2
		c-0.4,0.4-5.3,15.5-7.5,23.2c-1.4,4.9-12.7,41.8-19.4,63.5c-1.9,6.2-3.8,11.6-4.1,12c-0.4,0.5-2.4,0.8-5.3,0.9
		c-3,0-4.6-0.3-4.8-0.9c-0.2-0.5-1.8-5.6-3.7-11.4c-4.5-13.9-9.7-29.6-17.2-51.6c-18.6-54.3-17.9-52.1-16.6-53.1
		c1.3-0.9,8-1.2,9.3-0.3c0.9,0.6,4.3,10.3,9.5,27.1c1.8,6,7.1,22.6,11.8,36.8c10.3,31.6,11.3,34.7,11.3,36.4c0,3.1,1.4-0.9,6.3-17
		c2.8-9.4,5.7-19.3,6.6-22c0.9-2.7,2.9-9.5,4.6-15.1c1.7-5.6,3.9-12.9,4.9-16.1c1.1-3.2,3.4-11.1,5.3-17.4
		c1.9-6.4,3.8-11.9,4.1-12.4c0.4-0.5,2.4-0.9,5.5-0.9h4.8l6,18.6c3.4,10.3,9.7,30.1,14.3,43.9s9.2,28.4,10.3,32
		c1.1,3.7,2.2,6.5,2.4,6.3c0.3-0.3,0.7-1.6,1.1-3.1c0.6-2.4,3.2-11.4,11.1-37.8c14.2-48.1,17.5-58.8,18.2-59.6
		c1.1-1.3,10.2-1.3,10.7,0C1267.7,740.9,1263.7,754.5,1256.3,777.1z M1494.5,658.3c-0.4,1.2-1.3,1.3-15.4,1.4
		c-8.2,0.1-62.2-0.3-119.7-0.9l-104.9-1.1l-0.4-1.6c-0.3-0.9-0.3-6.2-0.1-11.8l0.3-10.2l5.1,0.1c4.5,0.1,5.3-0.1,7.9-1.9
		c3.4-2.3,6.2-6.1,7.4-10.1c1.1-3.6,1.2-14.1,1.1-84.2c0-27.3,0.1-86.8,0.1-132.2c0.1-45.4,0.1-101.8,0.1-125.3
		c0-23.5,0-66.6,0-95.7c0-79.9-0.3-96.3-1.6-100.3c-1.2-3.8-3-6.6-5.4-8.8c-3.2-3-5.3-3.8-10.3-3.8h-4.8l0.1-7.4
		c0-4.1-0.1-8.4-0.3-9.7c-0.2-1.5,0-2.8,0.7-3.6c1.1-1.4,3.8-1.4,95-1.3c20.6,0.1,49.7,0,64.5-0.1s38.5-0.1,52.5,0.1
		c23.7,0.3,25.6,0.5,26.1,1.5c0.3,0.7,0.5,9.7,0.5,20.2c-0.1,10.5,0,19.2,0.1,19.5c0.1,0.2,0.1,11.2,0,24.3c-0.1,17-0.5,24.1-1,24.6
		c-1.1,1.1-21.6,1.1-22.8,0.1c-0.5-0.5-0.9-1.9-0.9-3.5c0.1-4.4-2.2-19.8-3.9-26.4c-2.6-10.1-8-20-15.1-27.8
		c-6.1-6.6-11.9-9.8-19.9-10.9c-4.9-0.7-90.9-0.9-92-0.3c-0.7,0.4-0.8,9.6-0.7,45.8c0.1,24.9,0.1,67.1,0.1,93.7
		c0,100.3,0.1,130.2,0.8,130.6c0.3,0.1,14.8,0.2,32.4,0.2c24.1-0.1,32.6-0.3,34.5-0.9c3.9-1.3,9.8-7,12.6-12.1
		c3-5.6,4.5-11.3,5.1-18.8c0.2-3.3,0.7-6.4,1-7c0.5-0.9,2.2-1.1,9.4-1.4c9.2-0.3,11.3-0.1,11.8,1.4c0.2,0.5,0.3,23.9,0.4,52
		c0.1,46.7,0,51.3-1,52.2c-0.9,0.8-2.9,1.1-9.3,1.2c-11,0.2-11.6,0-11.5-3.6c0.1-8-3.9-21.2-8.8-28.2c-3.1-4.6-8.2-8.3-13-9.3
		c-3.9-0.9-63-1.4-63.8-0.6c-0.4,0.4-0.5,25.7-0.3,142.9c0,20.3,0.1,51.2,0,68.8c-0.1,17.6,0,37.7,0,44.7l0.1,12.8l47,0.5
		c50.3,0.5,50.8,0.5,57.8-2.8c3.8-1.7,10.1-7.5,13.9-12.6c7.6-10.3,11.4-23.3,13.1-44.7c0.4-4.5,0.9-7,1.5-7.5
		c0.6-0.5,4.9-0.8,11.7-0.9c10.1-0.2,10.9-0.1,11.4,1.1C1494.6,570,1495.2,656.1,1494.5,658.3z"/>
	<path id="XMLID_113_" class="st1" d="M986.5,786.9c1.4-3,1.6-4.5,1.5-10.4c-0.1-8.6-1.6-13.3-5.8-17.4c-6.4-6.4-12.4-7.7-35.7-7.4
		l-17.5,0.2l-0.3,23.6c-0.1,13-0.1,23.9,0.1,24.2c0.5,0.7,31.7,0.7,37.5-0.1C976.2,798.2,983.4,793.7,986.5,786.9z"/>
	<path id="XMLID_114_" class="st1" d="M861.8,793c7.7-1.1,13.2-4.6,16.2-10.2c1.9-3.6,2-13.7,0.3-18.1c-2.4-5.9-7.4-9.7-15.1-11.5
		c-5.5-1.3-38-1.4-38.4-0.2c-0.3,0.9-1,40.4-0.7,40.7C824.5,794.2,858,793.5,861.8,793z"/>
	<path id="XMLID_115_" class="st1" d="M877,807.7c-7.1-3.7-8.7-3.9-31.4-4.1l-21.3-0.3v22.6c0,12.4,0.1,22.8,0.3,23
		c0.3,0.3,14.7,0.2,33.9-0.3c10.5-0.3,14.9-1.4,20.1-4.9c5.5-3.8,8.7-11.5,8.1-19.7C886.3,816.2,882.9,810.7,877,807.7z"/>
	<path id="XMLID_116_" class="st1" d="M789.4,591.6c-4.9,0-11.3,13.4-15.1,31.9c-1.7,8.3-2.4,19.9-1.4,21.9c0.9,1.7,1.3,1.8,3.2,0.5
		c4-2.8,9.3-15.3,12.4-29.6c0.9-4.3,2.3-10.3,3-13.3C793.6,594.2,793.1,591.6,789.4,591.6z"/>
	<polygon id="XMLID_117_" class="st1" points="1548.8,-0.5 1524,-0.5 1504.2,-0.5 1504.2,899.5 1524,899.5 1548.8,899.5 1600,899.5 
		1600,-0.5 	"/>
	<polygon id="XMLID_118_" class="st1" points="76,0 76,-0.5 0,-0.5 0,899.5 38,899.5 76,899.5 109,899.5 109,0 	"/>
</g>
</svg>
