<?xml version="1.0" encoding="utf-8"?>
<!-- Generator: Adobe Illustrator 19.0.0, SVG Export Plug-In . SVG Version: 6.00 Build 0)  -->
<svg version="1.1"
	 id="svg3336" xmlns:dc="http://purl.org/dc/elements/1.1/" xmlns:cc="http://creativecommons.org/ns#" xmlns:inkscape="http://www.inkscape.org/namespaces/inkscape" xmlns:sodipodi="http://sodipodi.sourceforge.net/DTD/sodipodi-0.dtd" xmlns:svg="http://www.w3.org/2000/svg" xmlns:rdf="http://www.w3.org/1999/02/22-rdf-syntax-ns#" sodipodi:docname="Cup.svg" inkscape:version="0.91 r13725"
	 xmlns="http://www.w3.org/2000/svg" xmlns:xlink="http://www.w3.org/1999/xlink" x="0px" y="0px"
	 viewBox="-194 -136.5 451.3 868.5" style="enable-background:new -194 -136.5 451.3 868.5;" xml:space="preserve">
<style type="text/css">
	.st0{stroke:#000000;stroke-miterlimit:10;}
	.st1{fill:#FFFFFF;}
</style>
<rect x="-153.1" y="183.6" class="st0" width="374" height="504.7"/>
<sodipodi:namedview  pagecolor="#ffffff" borderopacity="1" bordercolor="#666666" inkscape:cy="292.5" gridtolerance="10" inkscape:zoom="1.2615385" guidetolerance="10" inkscape:cx="390.40798" showgrid="false" objecttolerance="10" id="namedview3338" inkscape:current-layer="svg3336" inkscape:window-maximized="1" inkscape:window-y="-8" inkscape:window-x="-8" inkscape:window-height="937" inkscape:window-width="1500" inkscape:pageshadow="2" inkscape:pageopacity="0">
	</sodipodi:namedview>
<path id="path3346" inkscape:connector-curvature="0" class="st1" d="M-194,439.5l0-292.5H31.6h225.6v292.5l0,292.5H31.6H-194
	L-194,439.5L-194,439.5z M138.4,685.5c0.6-1.5,2.6-18.3,4.4-37.2s6.3-64.8,10.1-101.9c3.7-37.1,9.3-93.9,12.4-126.3
	s6.2-64.1,6.9-70.6c2.8-27.1,3-34.3,0.8-36.1c-1.7-1.4-24.7-1.5-140.3-0.4c-79.2,0.7-138.7,1.7-139.4,2.4
	c-1.6,1.6,8,102.3,30.1,317.3c2.8,26.8,5,49.4,5,50.2c0,0.8,0.9,2.4,2,3.4c1.8,1.8,12.9,2,104.4,2h102.4L138.4,685.5z M74.7,294.6
	c94.7-1,120.8-1.6,121.5-2.8c1.9-3,1.2-28.3-0.8-32.2c-2.7-5.3-5.4-6.2-17.8-6.2h-11.1l-1.3-20.6c-0.7-11.9-1.8-21.2-2.7-22
	c-1-1-15.7-1-56.2,0l-54.8,1.4l-8.1-4.8c-22.7-13.6-35.8-15.5-95.3-14.3c-22.5,0.5-41.2,1.2-41.5,1.7c-0.3,0.4-1.7,14.3-3.2,30.8
	s-3.3,30.6-4,31.5c-0.9,1-5.1,1.6-12.9,1.6c-9.4,0-11.7,0.4-12.3,2c-1.1,2.8-0.9,32.1,0.2,33.8C-123.7,296.8-141.7,296.7,74.7,294.6
	z"/>
</svg>
