<?xml version="1.0" encoding="utf-8"?>
<!-- Generator: Adobe Illustrator 19.0.0, SVG Export Plug-In . SVG Version: 6.00 Build 0)  -->
<svg version="1.1"
	 id="svg3348" xmlns:dc="http://purl.org/dc/elements/1.1/" xmlns:cc="http://creativecommons.org/ns#" xmlns:inkscape="http://www.inkscape.org/namespaces/inkscape" xmlns:sodipodi="http://sodipodi.sourceforge.net/DTD/sodipodi-0.dtd" xmlns:svg="http://www.w3.org/2000/svg" xmlns:rdf="http://www.w3.org/1999/02/22-rdf-syntax-ns#" sodipodi:docname="Flask.svg" inkscape:version="0.91 r13725"
	 xmlns="http://www.w3.org/2000/svg" xmlns:xlink="http://www.w3.org/1999/xlink" x="0px" y="0px"
	 viewBox="-297 -144.5 246.3 883.6" style="enable-background:new -297 -144.5 246.3 883.6;" xml:space="preserve">
<style type="text/css">
	.st0{fill:#FFFFFF;}
</style>
<rect x="-261" y="154.7" width="185" height="559"/>
<sodipodi:namedview  pagecolor="#ffffff" borderopacity="1" bordercolor="#666666" inkscape:cy="571.72726" gridtolerance="10" inkscape:zoom="2.2250293" guidetolerance="10" inkscape:cx="191.20357" showgrid="false" objecttolerance="10" id="namedview3350" inkscape:current-layer="svg3348" inkscape:window-maximized="1" inkscape:window-y="-8" inkscape:window-x="-8" inkscape:window-height="937" inkscape:window-width="1500" inkscape:pageshadow="2" inkscape:pageopacity="0">
	</sodipodi:namedview>
<path id="path3358" inkscape:connector-curvature="0" class="st0" d="M-297.1,446.2l-3.6-306.9l123.1,0.8l123.2,0.8L-56.2,448
	l-1.6,294.1l-117.9-1l-117.8-1L-297.1,446.2L-297.1,446.2z M-136.3,680c9.8-3.4,22.5-12.2,27.7-19.2c8.1-11,10.5-18.1,11.6-34.4
	c0.9-13.3,2.2-88.8,5.3-318c1-70.4,0.9-76.7-1-77.5c-2.6-1,2.9-0.9-75.4-1.3c-51.1-0.2-67,0.1-68.5,1.3c-2.2,1.8-2.8,41-3.9,250
	c-0.8,143.8-0.6,153.7,2.3,162.7c4.8,15.1,14.7,26.4,29.1,33.4c10.9,5.3,14.3,5.7,41.7,5.6C-146.7,682.5-142.5,682.2-136.3,680
	L-136.3,680z M-188.2,665c-16.4-3.1-28-10.3-33.5-20.9l-3.5-6.7l0.4-72.2c0.2-40,0.6-94.8,0.8-121.6l0.4-49l55.8-0.3
	c30.7-0.2,56.2,0,56.7,0.4c1.3,1.2-1.8,239.3-3.2,244.6c-1.4,5.5-9.2,14.3-16.1,18.3c-9.3,5.3-20.6,7.9-36.8,8.2
	C-175.2,666-184.8,665.6-188.2,665L-188.2,665z M-120.4,217.4l30.9-0.6l3.6-4.2c3.9-4.4,4.6-9.2,2.4-15.2c-2.5-7-3-7-81.6-6.9
	c-41.6,0.1-73.6,0.7-75.4,1.4c-4.2,1.6-7.3,7.4-7.3,13.4c0,3.5,1,5.7,3.7,8.6l3.7,3.8l44.5,0.2
	C-171.3,217.9-137.4,217.7-120.4,217.4z"/>
</svg>
