<?xml version="1.0" encoding="utf-8"?>
<!-- Generator: Adobe Illustrator 19.0.0, SVG Export Plug-In . SVG Version: 6.00 Build 0)  -->
<svg version="1.1"
	 id="svg3360" xmlns:dc="http://purl.org/dc/elements/1.1/" xmlns:cc="http://creativecommons.org/ns#" xmlns:inkscape="http://www.inkscape.org/namespaces/inkscape" xmlns:sodipodi="http://sodipodi.sourceforge.net/DTD/sodipodi-0.dtd" xmlns:svg="http://www.w3.org/2000/svg" xmlns:rdf="http://www.w3.org/1999/02/22-rdf-syntax-ns#" sodipodi:docname="Science Equpment.svg" inkscape:version="0.91 r13725"
	 xmlns="http://www.w3.org/2000/svg" xmlns:xlink="http://www.w3.org/1999/xlink" x="0px" y="0px" viewBox="-148 -144.5 545 883.8"
	 style="enable-background:new -148 -144.5 545 883.8;" xml:space="preserve">
<style type="text/css">
	.st0{fill:#FFFFFF;}
</style>
<rect x="-117" y="-116.5" width="470" height="840.5"/>
<sodipodi:namedview  pagecolor="#ffffff" borderopacity="1" bordercolor="#666666" inkscape:cy="336.40289" gridtolerance="10" inkscape:zoom="0.53408769" guidetolerance="10" inkscape:cx="446.10812" showgrid="false" objecttolerance="10" id="namedview3362" inkscape:current-layer="svg3360" inkscape:window-maximized="1" inkscape:window-y="-8" inkscape:window-x="-8" inkscape:window-height="937" inkscape:window-width="1500" inkscape:pageshadow="2" inkscape:pageopacity="0">
	</sodipodi:namedview>
<path id="path3370" inkscape:connector-curvature="0" class="st0" d="M-148,289.9v-439.4l270.6,6.2l268.4,6.1l3,435.8l3,440.7
	l-271.4-2.5l-273.6-2.6C-148,734.2-148,289.9-148,289.9z M146.7,683.4c98.3,0.5,170.9,0.5,172.1-0.2c1.2-0.6,3.3-3.4,4.7-6.3
	c2.3-4.5,2.5-6.8,2.1-19l-0.5-13.9l-8.3-15.1c-4.6-8.3-11-20.2-14.3-26.4c-3.3-6.2-10.8-19.8-16.6-30.2
	c-5.8-10.4-19.8-35.3-30.9-55.4c-34-61.1-37.8-68-58.3-104.4c-10.8-19.4-21.7-38.5-24.2-42.5c-8-13.3-8.4-16.7-8.6-89
	c-0.2-63.9-0.2-64.4,2.6-71.1c2.4-5.9,3.4-6.9,7.5-8c5.7-1.5,7.4-4,5.7-8.4l-1.2-3.2l-41.9-0.7c-23.1-0.4-52.4-0.6-65.2-0.3
	c-25,0.4-24.8,0.4-23.6,7.2c0.3,1.8,1.7,3.1,3.8,3.7c4.7,1.2,6.5,3,9.1,8.9c2.2,4.9,2.3,9.1,2.3,59.8c0,56.3-0.9,76.7-4,86.9
	c-1.8,6-13.3,27.1-36.7,67.6C15,435.7,5.5,452.5,1.2,460.4c-4.3,7.9-18.2,32.5-30.9,54.7c-23.7,41.5-50.9,89.3-62,109.1
	c-8,14.2-9.7,20-9.7,33.4c0,12.6,1.4,18.6,5.2,22.8l2.7,3l34.7-0.4C-39.7,682.6,52.8,682.8,146.7,683.4z M-67.3,656.9
	c-5-4.6-5.2-5.3-5.2-12.1c0-8.3,1.4-11.5,16.9-37.7c22.7-38.5,39.3-67.2,64-110.4c6.4-11.3,12.7-21.4,13.8-22.6
	c1.9-1.9,10.4-2,92.6-1.3l90.2,0.8l36,62.9c19.8,34.6,38.4,67.2,41.3,72.4c2.9,5.2,6.4,11.1,7.6,13.2c11,18.4,11.9,27.4,3.5,35.1
	c-2.6,2.4-6,4.6-7.6,4.9c-2.2,0.5-292.5,0.2-337.7-0.3C-61.9,661.9-62.1,661.8-67.3,656.9L-67.3,656.9z M224.6,152.6
	c8.4-3.9,18.3-14.1,20.8-21.4c2.6-7.6,2.5-24.1-0.1-31.7c-2.2-6.5-10-16.1-16.6-20.3c-7.1-4.6-12.9-6.1-24.5-6.2
	c-9.5-0.2-11.7,0.3-18.5,3.5c-8.2,3.9-15.8,11.3-19.7,19.1c-3.4,6.8-3.8,25.5-0.8,33.9c3.8,10.6,13.5,20.1,25.2,24.7
	C197.8,156.9,217,156.1,224.6,152.6L224.6,152.6z M193.2,141.4c-6.1-2.8-14.4-11.8-16.1-17.7c-3.3-10.9-1.4-19.9,5.9-28.1
	c5.7-6.4,9.4-8.6,17.8-10.3c16.5-3.4,34,11.7,34.1,29.2c0.1,15.9-14.3,29.4-30.8,28.9C200.4,143.3,195.5,142.4,193.2,141.4
	L193.2,141.4z M294.5,39.1c6.7-2.9,13.7-10,16.8-16.9c1.8-4.2,2.4-8,2.3-15.1c-0.2-11.4-2.8-17.9-9.8-25c-7.4-7.5-12.9-9.6-25.5-9.9
	c-12.9-0.3-17.8,1.3-25.3,8.4c-7.8,7.3-9.9,12.8-9.9,25c0,15.5,4.8,24.5,16.6,31.5c5.9,3.5,7.4,3.8,18.1,4
	C286.5,41.3,290.7,40.8,294.5,39.1L294.5,39.1z M269.8,29.4c-9.5-3.7-15.7-12.5-15.7-22.5c0-7.3,2.2-12.6,7.5-17.4
	c5.2-4.8,9.4-6.3,17.2-6.2c8.5,0.2,15.2,4,19.7,11.2c4,6.3,4.9,14.3,2.4,20.9c-1.5,4.1-7.9,10.9-12.2,13.1
	C283.7,31,275.1,31.4,269.8,29.4L269.8,29.4z M241-66.3c22-17.1,4.3-52.1-22.9-45.4c-14.7,3.6-22.7,20.9-16.3,34.8
	c4.8,10.3,12.2,14.6,25.1,14.4C235.3-62.6,236.8-63,241-66.3L241-66.3z M219.2-71.1c-9.2-4-12.9-12.5-9.4-21.7
	c5.2-13.7,22.5-14.9,30.3-2.1c6.3,10.3-0.5,22.8-13.4,24.5C224.3-70,220.9-70.4,219.2-71.1z"/>
</svg>
